# xmcd CD database file
#
# Track frame offsets:
#	150
#	18456
#	32352
#	44643
#	62419
#	74873
#	88613
#	100789
#	115267
#
# Disc length: 1754 seconds
#
# Revision: 0
# Processed by: cddbd v1.5.1PL0 Copyright (c) Steve Scherf et al.
# Submitted via: CDex 1.51
#
DISCID=7506d809
DTITLE=Clint Black - No Time To Kill
DYEAR=1900
DGENRE=Country
TTITLE0=No Time to Kill
TTITLE1=Thinkin' Again
TTITLE2=A Good Run of Bad Luck
TTITLE3=State of Mind
TTITLE4=Back to Back
TTITLE5=Half the Man
TTITLE6=I'll Take Texas
TTITLE7=Happiness Alone
TTITLE8=Tuckered Out
EXTD=
EXTT0=
EXTT1=
EXTT2=
EXTT3=
EXTT4=
EXTT5=
EXTT6=
EXTT7=
EXTT8=
PLAYORDER=
